<svg width="17" height="19" viewBox="0 0 17 19" fill="none" xmlns="http://www.w3.org/2000/svg">
<path d="M6.59302 7.97101C6.05102 7.97101 5.62402 8.44601 5.62402 9.02601C5.62402 9.60401 6.06102 10.081 6.59302 10.081C7.13402 10.081 7.56102 9.60401 7.56102 9.02601C7.57202 8.44501 7.13402 7.97101 6.59302 7.97101ZM10.061 7.97101C9.51902 7.97101 9.09202 8.44601 9.09202 9.02601C9.09202 9.60401 9.52902 10.081 10.061 10.081C10.602 10.081 11.029 9.60401 11.029 9.02601C11.028 8.44501 10.602 7.97101 10.061 7.97101Z" fill="white"/>
<path d="M14.678 0H1.94701C1.69067 0.000655769 1.43696 0.0517954 1.20039 0.150499C0.963812 0.249202 0.748992 0.393537 0.568197 0.575261C0.387401 0.756986 0.244169 0.972541 0.146678 1.20962C0.0491882 1.4467 -0.00065103 1.70066 6.42064e-06 1.957V14.801C6.42064e-06 15.884 0.874007 16.758 1.94701 16.758H12.72L12.215 14.999L13.432 16.13L14.581 17.194L16.625 19V1.957C16.6257 1.70066 16.5758 1.4467 16.4783 1.20962C16.3808 0.972541 16.2376 0.756986 16.0568 0.575261C15.876 0.393537 15.6612 0.249202 15.4246 0.150499C15.188 0.0517954 14.9343 0.000655769 14.678 0V0ZM11.01 12.407C11.01 12.407 10.668 11.999 10.384 11.636C11.628 11.284 12.103 10.506 12.103 10.506C11.713 10.762 11.343 10.944 11.01 11.068C9.79769 11.5754 8.46263 11.7138 7.17201 11.466C6.69511 11.3723 6.22782 11.2351 5.77601 11.056C5.53772 10.9655 5.30614 10.8582 5.08301 10.735C5.05401 10.714 5.02601 10.706 4.99801 10.687C4.98303 10.6799 4.96973 10.6697 4.95901 10.657C4.78801 10.563 4.69301 10.497 4.69301 10.497C4.69301 10.497 5.14901 11.257 6.35601 11.618C6.07101 11.978 5.71901 12.407 5.71901 12.407C3.62001 12.34 2.82301 10.963 2.82301 10.963C2.82301 7.904 4.19101 5.425 4.19101 5.425C5.55901 4.398 6.86001 4.427 6.86001 4.427L6.95501 4.541C5.24501 5.036 4.45601 5.786 4.45601 5.786C4.45601 5.786 4.66601 5.672 5.01701 5.511C6.03301 5.065 6.84001 4.941 7.17301 4.912C7.23001 4.903 7.27801 4.893 7.33501 4.893C8.98222 4.67102 10.6572 4.98406 12.113 5.786C12.113 5.786 11.362 5.074 9.74701 4.58L9.88001 4.428C9.88001 4.428 11.182 4.399 12.549 5.426C12.549 5.426 13.917 7.905 13.917 10.964C13.917 10.963 13.11 12.34 11.01 12.407V12.407Z" fill="white"/>
</svg>
