<svg width="896" height="872" viewBox="0 0 896 872" fill="none" xmlns="http://www.w3.org/2000/svg">
<path d="M447.6 0.299995C200.3 0.199995 0 200.4 0 447.5C0 642.9 125.3 809 299.8 870C323.3 875.9 319.7 859.2 319.7 847.8V770.3C184 786.2 178.5 696.4 169.4 681.4C151 650 107.5 642 120.5 627C151.4 611.1 182.9 631 219.4 684.9C245.8 724 297.3 717.4 323.4 710.9C329.1 687.4 341.3 666.4 358.1 650.1C217.5 624.9 158.9 539.1 158.9 437.1C158.9 387.6 175.2 342.1 207.2 305.4C186.8 244.9 209.1 193.1 212.1 185.4C270.2 180.2 330.6 227 335.3 230.7C368.3 221.8 406 217.1 448.2 217.1C490.6 217.1 528.4 222 561.7 231C573 222.4 629 182.2 683 187.1C685.9 194.8 707.7 245.4 688.5 305.1C720.9 341.9 737.4 387.8 737.4 437.4C737.4 539.6 678.4 625.5 537.4 650.3C549.477 662.177 559.066 676.341 565.608 691.966C572.15 707.59 575.512 724.361 575.5 741.3V853.8C576.3 862.8 575.5 871.7 590.5 871.7C767.6 812 895.1 644.7 895.1 447.6C895.1 200.4 694.7 0.299995 447.6 0.299995V0.299995Z" fill="white"/>
</svg>
